# File created by Blade
# Date/Time:  Thu Jan 15 19:03:44 2015
#---------------------------------------------------------
:version 1.10
:name HOM
:units
  mass 1.0
  length 1.000000
  angle deg
:documentation
     Acclaim Skeleton File
:root
   axis xyz
   order TX TY TZ RX RY RZ
   position 0.000000 0.000000 0.000000
   orientation 0 0 0
:bonedata
   begin
      id 1
      name Spine_dum
      direction 0.000000 1.000000 0.000000
      length 4.354460
      axis 0.0 0.0 0.0 xyz
   end
   begin
      id 2
      name LeftUpLeg_dum
      direction 1.000000 0.000000 0.000000
      length 4.291077
      axis 0.0 0.0 0.0 xyz
   end
   begin
      id 3
      name RightUpLeg_dum
      direction -1.000000 0.000000 0.000000
      length 4.291077
      axis 0.0 0.0 0.0 xyz
   end
   begin
      id 4
      name Spine
      direction 0.000000 1.000000 0.000000
      length 0.000000
      axis 0.0 0.0 0.0 xyz
      dof rx ry rz
   end
   begin
      id 5
      name Spine_dum1
      direction 0.000000 1.000000 0.000000
      length 16.581769
      axis 0.0 0.0 0.0 xyz
   end
   begin
      id 6
      name Spine_dum2
      direction 0.000000 1.000000 0.000000
      length 12.903700
      axis 0.0 0.0 0.0 xyz
   end
   begin
      id 7
      name Spine_dum3
      direction 0.000000 1.000000 0.000000
      length 12.903700
      axis 0.0 0.0 0.0 xyz
   end
   begin
      id 8
      name Head
      direction 0.000000 1.000000 0.000000
      length 4.527550
      axis 0.0 0.0 0.0 xyz
      dof rx ry rz
   end
   begin
      id 9
      name LeftShoulder
      direction 1.000000 0.000000 0.000000
      length 6.942033
      axis 0.0 0.0 -90.0 xyz
      dof rx ry rz
   end
   begin
      id 10
      name LeftArm
      direction 1.000000 0.000000 0.000000
      length 11.010391
      axis 0.0 0.0 -90.0 xyz
      dof rx ry rz
   end
   begin
      id 11
      name LeftForeArm
      direction 1.000000 0.000000 0.000000
      length 8.054994
      axis 0.0 0.0 -90.0 xyz
      dof rz ry rx
   end
   begin
      id 12
      name LeftHand
      direction 0.000000 0.000000 0.000000
      length 0.000000
      axis 0.0 0.0 -90.0 xyz
      dof rx ry rz
   end
   begin
      id 13
      name LeftHand_dum1
      direction 0.000000 0.000000 0.000000
      length 0.000000
      axis 0.0 0.0 -90.0 xyz
   end
   begin
      id 14
      name LeftHand_dum2
      direction 1.000000 0.000000 0.000000
      length 3.937000
      axis 0.0 0.0 -90.0 xyz
   end
   begin
      id 15
      name LeftHandThumb1
      direction 0.000000 0.000000 1.000000
      length 3.937000
      axis 0.0 0.0 -90.0 xyz
      dof rx ry rz
   end
   begin
      id 16
      name RightShoulder
      direction -1.000000 0.000000 0.000000
      length 6.942033
      axis 0.0 0.0 90.0 xyz
      dof rx ry rz
   end
   begin
      id 17
      name RightArm
      direction -1.000000 0.000000 0.000000
      length 11.010391
      axis 0.0 0.0 90.0 xyz
      dof rx ry rz
   end
   begin
      id 18
      name RightForeArm
      direction -1.000000 0.000000 0.000000
      length 8.054994
      axis 0.0 0.0 90.0 xyz
      dof rz ry rx
   end
   begin
      id 19
      name RightHand
      direction 0.000000 0.000000 0.000000
      length 0.000000
      axis 0.0 0.0 90.0 xyz
      dof rx ry rz
   end
   begin
      id 20
      name RightHand_dum1
      direction 0.000000 0.000000 0.000000
      length 0.000000
      axis 0.0 0.0 90.0 xyz
   end
   begin
      id 21
      name RightHand_dum2
      direction -1.000000 0.000000 0.000000
      length 3.937000
      axis 0.0 0.0 90.0 xyz
   end
   begin
      id 22
      name RightHandThumb1
      direction 0.000000 0.000000 1.000000
      length 3.937000
      axis 0.0 0.0 90.0 xyz
      dof rx ry rz
   end
   begin
      id 23
      name LeftUpLeg
      direction 0.000000 -1.000000 0.000000
      length 17.039958
      axis 0.0 0.0 0.0 xyz
      dof rx ry rz
   end
   begin
      id 24
      name LeftLeg
      direction 0.000000 -1.000000 0.000000
      length 16.939743
      axis 0.0 0.0 0.0 xyz
      dof rx ry rz
   end
   begin
      id 25
      name LeftFoot
      direction 0.000000 -0.258819 0.965926
      length 5.235044
      axis 15.0 0.0 0.0 xyz
      dof rx ry rz
   end
   begin
      id 26
      name LeftToeBase
      direction 0.000000 0.000000 1.000000
      length 2.952750
      axis 0.0 0.0 0.0 xyz
      dof rx ry rz
   end
   begin
      id 27
      name RightUpLeg
      direction 0.000000 -1.000000 0.000000
      length 17.039958
      axis 0.0 0.0 0.0 xyz
      dof rx ry rz
   end
   begin
      id 28
      name RightLeg
      direction 0.000000 -1.000000 0.000000
      length 16.939743
      axis 0.0 0.0 0.0 xyz
      dof rx ry rz
   end
   begin
      id 29
      name RightFoot
      direction 0.000000 -0.258819 0.965926
      length 5.235044
      axis 15.0 0.0 0.0 xyz
      dof rx ry rz
   end
   begin
      id 30
      name RightToeBase
      direction 0.000000 0.000000 1.000000
      length 2.952750
      axis 0.0 0.0 0.0 xyz
      dof rx ry rz
   end
:hierarchy
   begin
      root Spine_dum LeftUpLeg_dum RightUpLeg_dum
      Spine_dum Spine
      LeftUpLeg_dum LeftUpLeg
      RightUpLeg_dum RightUpLeg
      Spine Spine_dum1 Spine_dum2 Spine_dum3
      Spine_dum1 Head
      Spine_dum2 LeftShoulder
      Spine_dum3 RightShoulder
      LeftShoulder LeftArm
      LeftArm LeftForeArm
      LeftForeArm LeftHand
      LeftHand LeftHand_dum1 LeftHand_dum2
      LeftHand_dum1 LeftHandThumb1
      RightShoulder RightArm
      RightArm RightForeArm
      RightForeArm RightHand
      RightHand RightHand_dum1 RightHand_dum2
      RightHand_dum1 RightHandThumb1
      LeftUpLeg LeftLeg
      LeftLeg LeftFoot
      LeftFoot LeftToeBase
      RightUpLeg RightLeg
      RightLeg RightFoot
      RightFoot RightToeBase
   end

# File created by Blade
# Date/Time:  Thu Jan 15 19:03:33 2015
# Frame Rate: 120.000 fps
#------------------------------------------------------
:FULLY-SPECIFIED
:DEGREES
2426
root 0.214444 35.884847 -9.688224 -175.153912 14.525757 -178.194480
Spine 0.415818 17.313075 -9.703584
Head 6.486221 -7.957336 21.027451
LeftShoulder -1.212206 14.871986 5.763588
LeftArm 25.384283 6.238978 -73.306090
LeftForeArm -0.000000 3.387608 15.486089
LeftHand 4.015347 -0.000000 0.531186
LeftHandThumb1 -26.253704 33.147579 0.000000
RightShoulder -18.368784 -9.616561 9.380777
RightArm 13.633240 -18.939513 69.862689
RightForeArm -0.000000 -33.834172 33.737379
RightHand 3.895225 -0.000000 8.814601
RightHandThumb1 -24.326973 -32.862282 -0.000000
LeftUpLeg -3.793800 16.437267 -2.467447
LeftLeg 6.531386 -0.000000 -0.000000
LeftFoot -19.356666 18.357893 -11.384974
LeftToeBase 18.419018 -0.000000 -0.000000
RightUpLeg -7.781079 -5.500847 -2.462721
RightLeg 12.527352 -0.000000 -0.000000
RightFoot -15.102820 -19.106128 11.912881
RightToeBase 14.208147 -0.000000 -0.000000
2427
root 0.329870 35.863385 -9.675303 -175.237194 14.363783 -178.459646
Spine 0.371440 17.258155 -9.763966
Head 6.642350 -7.991100 20.760090
LeftShoulder -1.302222 15.005282 5.557779
LeftArm 25.193145 5.958633 -73.064698
LeftForeArm 0.000000 3.536510 15.300592
LeftHand 3.909850 -0.000000 0.612039
LeftHandThumb1 -26.253704 33.147579 0.000000
RightShoulder -18.308126 -9.595602 9.298802
RightArm 13.721631 -19.006774 69.877875
RightForeArm -0.000000 -33.658282 33.664606
RightHand 3.841346 -0.000000 8.335935
RightHandThumb1 -24.326973 -32.862282 -0.000000
LeftUpLeg -3.802363 16.506566 -2.510174
LeftLeg 6.601742 -0.000000 -0.000000
LeftFoot -19.359816 18.109490 -11.420248
LeftToeBase 18.504893 -0.000000 -0.000000
RightUpLeg -7.492356 -5.264819 -2.547722
RightLeg 12.007331 -0.000000 -0.000000
RightFoot -15.527169 -19.769269 11.904636
RightToeBase 14.664461 -0.000000 -0.000000
2428
root 0.451744 35.839899 -9.665755 -175.359559 14.208417 -178.740551
Spine 0.357782 17.252257 -9.856906
Head 6.771393 -7.988679 20.524929
LeftShoulder -1.385514 15.131925 5.388495
LeftArm 24.981774 5.716959 -72.806195
LeftForeArm 0.000000 3.470186 15.174863
LeftHand 4.044845 0.000000 0.409962
LeftHandThumb1 -26.253704 33.147579 0.000000
RightShoulder -18.324225 -9.593625 9.226429
RightArm 13.888751 -19.505964 69.716547
RightForeArm -0.000000 -33.278811 33.661245
RightHand 3.742295 -0.000000 8.089750
RightHandThumb1 -24.326973 -32.862282 -0.000000
LeftUpLeg -3.764564 16.470966 -2.548686
LeftLeg 6.679915 -0.000000 -0.000000
LeftFoot -19.399664 17.953592 -11.508305
LeftToeBase 18.610193 -0.000000 -0.000000
RightUpLeg -7.136198 -5.056480 -2.612429
RightLeg 11.484338 -0.000000 -0.000000
RightFoot -15.987424 -20.168290 11.619410
RightToeBase 14.840298 -0.000000 -0.000000
2429
root 0.575185 35.815505 -9.660197 -175.558100 14.083454 -179.009374
Spine 0.443426 17.293056 -9.893381
Head 6.871704 -7.997695 20.257425
LeftShoulder -1.519453 15.262684 5.161623
LeftArm 24.841573 5.560567 -72.489539
LeftForeArm -0.000000 3.481523 15.068500
LeftHand 3.791482 0.000000 0.500938
LeftHandThumb1 -26.253704 33.147579 0.000000
RightShoulder -18.347972 -9.680602 9.184700
RightArm 14.186225 -19.726244 69.626733
RightForeArm -0.000000 -33.152221 33.530539
RightHand 3.754797 -0.000000 8.184133
RightHandThumb1 -24.326973 -32.862282 -0.000000
LeftUpLeg -3.666445 16.517958 -2.555428
LeftLeg 6.819025 -0.000000 -0.000000
LeftFoot -19.481466 17.767656 -11.615086
LeftToeBase 18.738077 -0.000000 -0.000000
RightUpLeg -6.701743 -4.956427 -2.679383
RightLeg 10.995490 -0.000000 -0.000000
RightFoot -16.366677 -20.426244 11.278075
RightToeBase 15.068795 -0.000000 -0.000000
2430
root 0.700245 35.792404 -9.643699 -175.641270 13.954777 -179.257978
Spine 0.414615 17.318208 -9.954861
Head 6.977679 -8.055654 19.971069
LeftShoulder -1.630032 15.377769 4.916083
LeftArm 24.664517 5.324730 -72.185931
LeftForeArm 0.000000 3.266971 15.003327
LeftHand 3.760066 -0.000000 0.376090
LeftHandThumb1 -26.253704 33.147579 0.000000
RightShoulder -18.313648 -9.618977 9.079367
RightArm 14.264707 -19.896130 69.665854
RightForeArm -0.000000 -33.072402 33.445831
RightHand 3.632046 0.000000 8.005411
RightHandThumb1 -24.326973 -32.862282 -0.000000
LeftUpLeg -3.655953 16.547258 -2.573693
LeftLeg 6.868512 -0.000000 -0.000000
LeftFoot -19.521114 17.606838 -11.683182
LeftToeBase 18.852500 -0.000000 -0.000000
RightUpLeg -6.438062 -4.967989 -2.685727
RightLeg 10.622013 -0.000000 -0.000000
RightFoot -16.918264 -20.767928 11.296057
RightToeBase 15.501327 -0.000000 -0.000000
2431
root 0.824248 35.767730 -9.626309 -175.741196 13.799277 -179.534745
Spine 0.424537 17.306455 -10.028210
Head 7.047879 -8.041425 19.702844
LeftShoulder -1.786568 15.526956 4.660048
LeftArm 24.534331 4.950087 -71.972153
LeftForeArm -0.000000 3.436580 14.973512
LeftHand 3.648067 -0.000000 0.344801
LeftHandThumb1 -26.253704 33.147579 0.000000
RightShoulder -18.274375 -9.657588 8.992410
RightArm 14.474313 -20.072594 69.656119
RightForeArm 0.000000 -32.975223 33.329434
RightHand 3.633901 0.000000 7.984075
RightHandThumb1 -24.326973 -32.862282 -0.000000
LeftUpLeg -3.638570 16.459848 -2.614850
LeftLeg 6.922552 -0.000000 -0.000000
LeftFoot -19.551757 17.523289 -11.771921
LeftToeBase 18.918297 -0.000000 -0.000000
RightUpLeg -6.141341 -5.066113 -2.727869
RightLeg 10.258715 -0.000000 -0.000000
RightFoot -17.512848 -20.997332 11.336426
RightToeBase 15.978715 -0.000000 -0.000000
